<?xml version="1.0" encoding="utf-8"?>
<!-- Generator: Adobe Illustrator 16.0.4, SVG Export Plug-In . SVG Version: 6.00 Build 0)  -->
<!DOCTYPE svg PUBLIC "-//W3C//DTD SVG 1.1//EN" "http://www.w3.org/Graphics/SVG/1.1/DTD/svg11.dtd">
<svg version="1.1" id="Layer_1" xmlns="http://www.w3.org/2000/svg" xmlns:xlink="http://www.w3.org/1999/xlink" x="0px" y="0px"
	 width="150px" height="80px" viewBox="0 0 150 80" enable-background="new 0 0 150 80" xml:space="preserve">
<g>
	<path d="M4.848,3.866l18.048,27.792h0.096V3.866h4.32v34.272H22.32L4.416,10.634H4.32v27.504H0V3.866H4.848z"/>
	<path d="M56.015,38.042c-0.703,0.415-1.68,0.624-2.928,0.624c-1.055,0-1.895-0.296-2.52-0.888c-0.623-0.592-0.936-1.56-0.936-2.904
		c-1.121,1.345-2.424,2.312-3.912,2.904s-3.096,0.888-4.824,0.888c-1.121,0-2.184-0.128-3.191-0.384s-1.881-0.655-2.617-1.2
		c-0.736-0.543-1.319-1.256-1.751-2.136s-0.648-1.944-0.648-3.192c0-1.408,0.24-2.56,0.72-3.456c0.48-0.896,1.111-1.624,1.896-2.184
		c0.783-0.56,1.68-0.984,2.688-1.272s2.041-0.528,3.096-0.72c1.121-0.223,2.184-0.392,3.193-0.504
		c1.008-0.112,1.895-0.271,2.664-0.48c0.768-0.208,1.375-0.512,1.822-0.912c0.449-0.399,0.674-0.984,0.674-1.752
		c0-0.896-0.17-1.615-0.506-2.16c-0.336-0.543-0.768-0.96-1.295-1.248c-0.527-0.288-1.121-0.48-1.775-0.576
		c-0.656-0.096-1.305-0.144-1.945-0.144c-1.727,0-3.168,0.329-4.32,0.984c-1.15,0.656-1.775,1.896-1.871,3.72h-4.08
		c0.064-1.536,0.385-2.832,0.961-3.888c0.574-1.056,1.344-1.912,2.303-2.568c0.961-0.656,2.057-1.128,3.289-1.416
		c1.23-0.288,2.551-0.432,3.959-0.432c1.119,0,2.232,0.081,3.336,0.24s2.104,0.487,3,0.981c0.896,0.495,1.615,1.189,2.16,2.083
		s0.816,2.06,0.816,3.496v12.741c0,0.958,0.055,1.661,0.168,2.107c0.111,0.447,0.488,0.671,1.127,0.671
		c0.354,0,0.77-0.064,1.248-0.192V38.042z M49.392,25.322c-0.512,0.382-1.184,0.661-2.016,0.836
		c-0.832,0.176-1.705,0.319-2.617,0.43s-1.832,0.239-2.76,0.382s-1.76,0.374-2.496,0.692c-0.736,0.318-1.336,0.771-1.799,1.361
		c-0.465,0.589-0.697,1.393-0.697,2.411c0,0.67,0.137,1.234,0.408,1.696s0.625,0.837,1.057,1.123s0.936,0.493,1.512,0.62
		c0.576,0.129,1.184,0.191,1.824,0.191c1.344,0,2.496-0.184,3.455-0.549c0.961-0.366,1.744-0.828,2.354-1.386
		c0.607-0.558,1.055-1.163,1.344-1.815c0.287-0.652,0.432-1.266,0.432-1.838V25.322z"/>
</g>
<g>
	<path d="M2.121,44.565l7.896,12.159h0.042V44.565h1.89V59.56H9.765L1.932,47.526H1.89V59.56H0V44.565H2.121z"/>
	<path d="M24.506,59.518c-0.308,0.182-0.735,0.273-1.281,0.273c-0.462,0-0.83-0.13-1.103-0.389s-0.41-0.683-0.41-1.271
		c-0.49,0.588-1.061,1.012-1.711,1.271s-1.354,0.389-2.11,0.389c-0.49,0-0.956-0.057-1.396-0.168
		c-0.441-0.112-0.823-0.287-1.145-0.525c-0.322-0.237-0.578-0.549-0.767-0.935c-0.189-0.385-0.284-0.851-0.284-1.396
		c0-0.615,0.105-1.12,0.315-1.512s0.486-0.711,0.83-0.956c0.343-0.244,0.735-0.43,1.176-0.556s0.893-0.231,1.354-0.315
		c0.49-0.098,0.956-0.171,1.396-0.221c0.441-0.049,0.83-0.118,1.166-0.21c0.336-0.091,0.602-0.224,0.798-0.398
		c0.196-0.175,0.294-0.431,0.294-0.767c0-0.392-0.073-0.707-0.221-0.945c-0.147-0.238-0.336-0.42-0.567-0.546
		s-0.49-0.21-0.777-0.252c-0.287-0.042-0.571-0.063-0.851-0.063c-0.756,0-1.386,0.145-1.89,0.431
		c-0.504,0.287-0.777,0.83-0.819,1.628H14.72c0.028-0.672,0.168-1.239,0.42-1.701s0.588-0.836,1.008-1.123s0.899-0.494,1.438-0.62
		c0.539-0.126,1.116-0.188,1.732-0.188c0.49,0,0.977,0.035,1.459,0.104c0.483,0.07,0.92,0.213,1.312,0.43s0.707,0.521,0.945,0.911
		c0.238,0.392,0.357,0.901,0.357,1.529V57c0,0.42,0.024,0.727,0.073,0.923c0.049,0.195,0.213,0.293,0.494,0.293
		c0.154,0,0.336-0.028,0.546-0.084V59.518z M21.608,53.953c-0.224,0.167-0.518,0.289-0.882,0.365
		c-0.364,0.077-0.746,0.14-1.145,0.188s-0.802,0.104-1.208,0.167c-0.406,0.062-0.77,0.164-1.092,0.303
		c-0.322,0.14-0.584,0.338-0.787,0.596c-0.203,0.258-0.305,0.609-0.305,1.056c0,0.292,0.06,0.539,0.179,0.741
		c0.119,0.202,0.273,0.366,0.462,0.491c0.189,0.126,0.409,0.217,0.662,0.272c0.252,0.056,0.518,0.083,0.798,0.083
		c0.588,0,1.092-0.08,1.512-0.24c0.42-0.16,0.763-0.362,1.029-0.606c0.266-0.243,0.462-0.508,0.588-0.794
		c0.126-0.285,0.189-0.554,0.189-0.805V53.953z"/>
	<path d="M35.783,59.518c-0.308,0.182-0.735,0.273-1.281,0.273c-0.462,0-0.829-0.13-1.103-0.389
		c-0.272-0.259-0.409-0.683-0.409-1.271c-0.49,0.588-1.061,1.012-1.712,1.271c-0.65,0.259-1.354,0.389-2.11,0.389
		c-0.49,0-0.955-0.057-1.396-0.168c-0.442-0.112-0.823-0.287-1.145-0.525c-0.322-0.237-0.578-0.549-0.767-0.935
		c-0.189-0.385-0.284-0.851-0.284-1.396c0-0.615,0.105-1.12,0.315-1.512s0.486-0.711,0.83-0.956c0.343-0.244,0.735-0.43,1.176-0.556
		c0.441-0.126,0.893-0.231,1.354-0.315c0.49-0.098,0.956-0.171,1.396-0.221c0.441-0.049,0.83-0.118,1.166-0.21
		c0.336-0.091,0.602-0.224,0.798-0.398s0.294-0.431,0.294-0.767c0-0.392-0.073-0.707-0.221-0.945
		c-0.146-0.238-0.336-0.42-0.566-0.546c-0.231-0.126-0.49-0.21-0.777-0.252s-0.57-0.063-0.851-0.063
		c-0.756,0-1.386,0.145-1.89,0.431c-0.504,0.287-0.777,0.83-0.819,1.628h-1.785c0.028-0.672,0.168-1.239,0.42-1.701
		s0.588-0.836,1.008-1.123c0.42-0.287,0.899-0.494,1.439-0.62c0.538-0.126,1.116-0.188,1.732-0.188c0.489,0,0.977,0.035,1.459,0.104
		c0.483,0.07,0.921,0.213,1.312,0.43s0.707,0.521,0.945,0.911c0.237,0.392,0.356,0.901,0.356,1.529V57
		c0,0.42,0.024,0.727,0.074,0.923c0.049,0.195,0.213,0.293,0.493,0.293c0.154,0,0.336-0.028,0.546-0.084V59.518z M32.886,53.953
		c-0.225,0.167-0.519,0.289-0.883,0.365c-0.364,0.077-0.745,0.14-1.145,0.188c-0.398,0.049-0.801,0.104-1.207,0.167
		s-0.771,0.164-1.092,0.303c-0.322,0.14-0.585,0.338-0.787,0.596c-0.204,0.258-0.305,0.609-0.305,1.056
		c0,0.292,0.06,0.539,0.179,0.741c0.119,0.202,0.273,0.366,0.461,0.491c0.189,0.126,0.41,0.217,0.662,0.272s0.518,0.083,0.798,0.083
		c0.588,0,1.092-0.08,1.512-0.24s0.763-0.362,1.029-0.606c0.266-0.243,0.462-0.508,0.588-0.794c0.126-0.285,0.189-0.554,0.189-0.805
		V53.953z"/>
	<path d="M45.674,44.565l7.896,12.159h0.042V44.565h1.891V59.56h-2.185l-7.833-12.033h-0.042V59.56h-1.89V44.565H45.674z"/>
	<path d="M68.06,59.518c-0.308,0.182-0.735,0.273-1.281,0.273c-0.462,0-0.829-0.13-1.103-0.389
		c-0.272-0.259-0.409-0.683-0.409-1.271c-0.49,0.588-1.061,1.012-1.712,1.271c-0.65,0.259-1.354,0.389-2.11,0.389
		c-0.49,0-0.955-0.057-1.396-0.168c-0.44-0.112-0.822-0.287-1.145-0.525c-0.322-0.237-0.577-0.549-0.767-0.935
		c-0.188-0.385-0.283-0.851-0.283-1.396c0-0.615,0.105-1.12,0.315-1.512s0.486-0.711,0.829-0.956
		c0.343-0.244,0.735-0.43,1.176-0.556c0.441-0.126,0.893-0.231,1.354-0.315c0.49-0.098,0.956-0.171,1.396-0.221
		c0.441-0.049,0.83-0.118,1.166-0.21c0.336-0.091,0.602-0.224,0.798-0.398s0.294-0.431,0.294-0.767c0-0.392-0.073-0.707-0.221-0.945
		c-0.146-0.238-0.336-0.42-0.566-0.546c-0.231-0.126-0.49-0.21-0.777-0.252s-0.57-0.063-0.851-0.063
		c-0.756,0-1.386,0.145-1.89,0.431c-0.504,0.287-0.777,0.83-0.819,1.628h-1.785c0.028-0.672,0.168-1.239,0.42-1.701
		s0.588-0.836,1.008-1.123c0.421-0.287,0.899-0.494,1.439-0.62c0.538-0.126,1.116-0.188,1.732-0.188
		c0.489,0,0.977,0.035,1.459,0.104c0.483,0.07,0.921,0.213,1.312,0.43s0.707,0.521,0.945,0.911c0.237,0.392,0.356,0.901,0.356,1.529
		V57c0,0.42,0.024,0.727,0.074,0.923c0.049,0.195,0.213,0.293,0.493,0.293c0.154,0,0.336-0.028,0.546-0.084V59.518z M65.162,53.953
		c-0.225,0.167-0.519,0.289-0.883,0.365c-0.364,0.077-0.745,0.14-1.145,0.188c-0.398,0.049-0.801,0.104-1.207,0.167
		s-0.771,0.164-1.092,0.303c-0.322,0.14-0.585,0.338-0.788,0.596s-0.304,0.609-0.304,1.056c0,0.292,0.059,0.539,0.178,0.741
		s0.273,0.366,0.462,0.491c0.189,0.126,0.41,0.217,0.662,0.272s0.518,0.083,0.798,0.083c0.588,0,1.092-0.08,1.512-0.24
		s0.763-0.362,1.029-0.606c0.266-0.243,0.462-0.508,0.588-0.794c0.126-0.285,0.189-0.554,0.189-0.805V53.953z"/>
	<path d="M77.95,44.565l7.896,12.159h0.042V44.565h1.891V59.56h-2.185l-7.833-12.033h-0.042V59.56h-1.89V44.565H77.95z"/>
	<path d="M100.336,59.518c-0.308,0.182-0.735,0.273-1.281,0.273c-0.462,0-0.829-0.13-1.103-0.389
		c-0.272-0.259-0.409-0.683-0.409-1.271c-0.49,0.588-1.061,1.012-1.712,1.271c-0.65,0.259-1.354,0.389-2.11,0.389
		c-0.49,0-0.955-0.057-1.396-0.168c-0.44-0.112-0.822-0.287-1.145-0.525c-0.322-0.237-0.577-0.549-0.767-0.935
		c-0.188-0.385-0.283-0.851-0.283-1.396c0-0.615,0.105-1.12,0.315-1.512s0.486-0.711,0.829-0.956
		c0.343-0.244,0.735-0.43,1.176-0.556c0.441-0.126,0.893-0.231,1.354-0.315c0.49-0.098,0.956-0.171,1.396-0.221
		c0.441-0.049,0.83-0.118,1.166-0.21c0.336-0.091,0.602-0.224,0.798-0.398s0.294-0.431,0.294-0.767c0-0.392-0.073-0.707-0.221-0.945
		c-0.146-0.238-0.336-0.42-0.566-0.546c-0.231-0.126-0.49-0.21-0.777-0.252s-0.57-0.063-0.851-0.063
		c-0.756,0-1.386,0.145-1.89,0.431c-0.504,0.287-0.777,0.83-0.819,1.628H90.55c0.028-0.672,0.168-1.239,0.42-1.701
		s0.588-0.836,1.008-1.123c0.421-0.287,0.899-0.494,1.439-0.62c0.538-0.126,1.116-0.188,1.732-0.188
		c0.489,0,0.977,0.035,1.459,0.104c0.483,0.07,0.921,0.213,1.312,0.43s0.707,0.521,0.945,0.911c0.237,0.392,0.356,0.901,0.356,1.529
		V57c0,0.42,0.024,0.727,0.074,0.923c0.049,0.195,0.213,0.293,0.493,0.293c0.154,0,0.336-0.028,0.546-0.084V59.518z M97.438,53.953
		c-0.225,0.167-0.519,0.289-0.883,0.365c-0.364,0.077-0.745,0.14-1.145,0.188c-0.398,0.049-0.801,0.104-1.207,0.167
		s-0.771,0.164-1.092,0.303c-0.322,0.14-0.585,0.338-0.788,0.596s-0.304,0.609-0.304,1.056c0,0.292,0.059,0.539,0.178,0.741
		s0.273,0.366,0.462,0.491c0.189,0.126,0.41,0.217,0.662,0.272s0.518,0.083,0.798,0.083c0.588,0,1.092-0.08,1.512-0.24
		s0.763-0.362,1.029-0.606c0.266-0.243,0.462-0.508,0.588-0.794c0.126-0.285,0.189-0.554,0.189-0.805V53.953z"/>
	<path d="M110.228,44.565l7.896,12.159h0.042V44.565h1.891V59.56h-2.185l-7.833-12.033h-0.042V59.56h-1.89V44.565H110.228z"/>
	<path d="M132.612,59.518c-0.308,0.182-0.735,0.273-1.281,0.273c-0.462,0-0.829-0.13-1.103-0.389
		c-0.272-0.259-0.409-0.683-0.409-1.271c-0.49,0.588-1.061,1.012-1.712,1.271c-0.65,0.259-1.354,0.389-2.11,0.389
		c-0.49,0-0.955-0.057-1.396-0.168c-0.44-0.112-0.822-0.287-1.145-0.525c-0.322-0.237-0.577-0.549-0.767-0.935
		c-0.188-0.385-0.283-0.851-0.283-1.396c0-0.615,0.105-1.12,0.315-1.512s0.486-0.711,0.829-0.956
		c0.343-0.244,0.735-0.43,1.176-0.556c0.441-0.126,0.893-0.231,1.354-0.315c0.49-0.098,0.956-0.171,1.396-0.221
		c0.441-0.049,0.83-0.118,1.166-0.21c0.336-0.091,0.602-0.224,0.798-0.398s0.294-0.431,0.294-0.767c0-0.392-0.073-0.707-0.221-0.945
		c-0.146-0.238-0.336-0.42-0.566-0.546c-0.231-0.126-0.49-0.21-0.777-0.252s-0.57-0.063-0.851-0.063
		c-0.756,0-1.386,0.145-1.89,0.431c-0.504,0.287-0.777,0.83-0.819,1.628h-1.785c0.028-0.672,0.168-1.239,0.42-1.701
		s0.588-0.836,1.008-1.123c0.421-0.287,0.899-0.494,1.439-0.62c0.538-0.126,1.116-0.188,1.732-0.188
		c0.489,0,0.977,0.035,1.459,0.104c0.483,0.07,0.921,0.213,1.312,0.43s0.707,0.521,0.945,0.911c0.237,0.392,0.356,0.901,0.356,1.529
		V57c0,0.42,0.024,0.727,0.074,0.923c0.049,0.195,0.213,0.293,0.493,0.293c0.154,0,0.336-0.028,0.546-0.084V59.518z M129.715,53.953
		c-0.225,0.167-0.519,0.289-0.883,0.365c-0.364,0.077-0.745,0.14-1.145,0.188c-0.398,0.049-0.801,0.104-1.207,0.167
		s-0.771,0.164-1.092,0.303c-0.322,0.14-0.585,0.338-0.788,0.596s-0.304,0.609-0.304,1.056c0,0.292,0.059,0.539,0.178,0.741
		s0.273,0.366,0.462,0.491c0.189,0.126,0.41,0.217,0.662,0.272s0.518,0.083,0.798,0.083c0.588,0,1.092-0.08,1.512-0.24
		s0.763-0.362,1.029-0.606c0.266-0.243,0.462-0.508,0.588-0.794c0.126-0.285,0.189-0.554,0.189-0.805V53.953z"/>
</g>
<g>
	<path d="M1.515,66.142l5.64,8.685h0.03v-8.685h1.35v10.71h-1.56L1.38,68.257H1.35v8.595H0v-10.71H1.515z"/>
	<path d="M17.505,76.821c-0.22,0.13-0.525,0.195-0.915,0.195c-0.33,0-0.593-0.093-0.788-0.277c-0.195-0.186-0.292-0.487-0.292-0.907
		c-0.35,0.42-0.757,0.722-1.223,0.907c-0.465,0.185-0.967,0.277-1.507,0.277c-0.35,0-0.683-0.04-0.998-0.12
		s-0.587-0.205-0.817-0.375s-0.413-0.393-0.547-0.667c-0.135-0.275-0.203-0.608-0.203-0.998c0-0.439,0.075-0.8,0.225-1.08
		c0.15-0.279,0.347-0.507,0.592-0.683c0.245-0.175,0.525-0.308,0.84-0.397c0.315-0.09,0.638-0.165,0.968-0.225
		c0.35-0.07,0.683-0.122,0.998-0.157s0.592-0.085,0.833-0.15c0.24-0.064,0.43-0.16,0.57-0.285s0.21-0.308,0.21-0.547
		c0-0.28-0.052-0.505-0.157-0.676c-0.105-0.17-0.24-0.3-0.405-0.39s-0.35-0.15-0.555-0.18c-0.205-0.03-0.408-0.045-0.608-0.045
		c-0.54,0-0.99,0.103-1.35,0.307c-0.36,0.205-0.555,0.593-0.585,1.163h-1.275c0.02-0.48,0.12-0.885,0.3-1.215
		c0.18-0.33,0.42-0.598,0.72-0.803c0.3-0.205,0.643-0.353,1.028-0.442c0.385-0.09,0.797-0.135,1.237-0.135
		c0.35,0,0.697,0.024,1.042,0.074s0.657,0.152,0.938,0.308c0.28,0.154,0.505,0.371,0.675,0.65s0.255,0.644,0.255,1.093v3.981
		c0,0.3,0.017,0.519,0.052,0.658s0.152,0.21,0.353,0.21c0.11,0,0.24-0.02,0.39-0.06V76.821z M15.435,72.847
		c-0.16,0.119-0.37,0.206-0.63,0.261c-0.26,0.056-0.532,0.1-0.817,0.135s-0.573,0.075-0.862,0.119
		c-0.291,0.045-0.55,0.117-0.78,0.217s-0.417,0.241-0.562,0.426c-0.145,0.184-0.217,0.435-0.217,0.753
		c0,0.209,0.042,0.386,0.127,0.53s0.195,0.262,0.33,0.351c0.135,0.09,0.292,0.154,0.472,0.194c0.18,0.04,0.37,0.06,0.57,0.06
		c0.42,0,0.78-0.058,1.08-0.172c0.3-0.114,0.545-0.259,0.735-0.433s0.33-0.363,0.42-0.567s0.135-0.396,0.135-0.574V72.847z"/>
	<path d="M24.57,66.142l5.64,8.685h0.03v-8.685h1.351v10.71H30.03l-5.595-8.595h-0.03v8.595h-1.35v-10.71H24.57z"/>
	<path d="M40.56,76.821c-0.22,0.13-0.525,0.195-0.915,0.195c-0.33,0-0.593-0.093-0.787-0.277c-0.195-0.186-0.293-0.487-0.293-0.907
		c-0.351,0.42-0.758,0.722-1.223,0.907c-0.465,0.185-0.968,0.277-1.507,0.277c-0.351,0-0.683-0.04-0.998-0.12
		c-0.314-0.08-0.588-0.205-0.817-0.375c-0.23-0.17-0.412-0.393-0.548-0.667c-0.135-0.275-0.202-0.608-0.202-0.998
		c0-0.439,0.075-0.8,0.225-1.08c0.15-0.279,0.348-0.507,0.593-0.683c0.245-0.175,0.525-0.308,0.84-0.397
		c0.315-0.09,0.638-0.165,0.968-0.225c0.35-0.07,0.683-0.122,0.997-0.157c0.315-0.035,0.593-0.085,0.833-0.15
		c0.24-0.064,0.43-0.16,0.57-0.285c0.14-0.125,0.21-0.308,0.21-0.547c0-0.28-0.053-0.505-0.158-0.676
		c-0.104-0.17-0.239-0.3-0.404-0.39s-0.351-0.15-0.556-0.18c-0.205-0.03-0.407-0.045-0.607-0.045c-0.54,0-0.99,0.103-1.35,0.307
		c-0.36,0.205-0.556,0.593-0.585,1.163H33.57c0.021-0.48,0.12-0.885,0.3-1.215c0.181-0.33,0.42-0.598,0.721-0.803
		c0.3-0.205,0.642-0.353,1.027-0.442c0.385-0.09,0.797-0.135,1.237-0.135c0.35,0,0.697,0.024,1.043,0.074
		c0.345,0.05,0.657,0.152,0.938,0.308c0.279,0.154,0.504,0.371,0.675,0.65c0.17,0.279,0.255,0.644,0.255,1.093v3.981
		c0,0.3,0.018,0.519,0.053,0.658c0.034,0.14,0.152,0.21,0.353,0.21c0.109,0,0.239-0.02,0.39-0.06V76.821z M38.49,72.847
		c-0.16,0.119-0.37,0.206-0.63,0.261c-0.26,0.056-0.532,0.1-0.817,0.135s-0.572,0.075-0.862,0.119
		c-0.29,0.045-0.55,0.117-0.78,0.217s-0.418,0.241-0.562,0.426c-0.145,0.184-0.218,0.435-0.218,0.753
		c0,0.209,0.043,0.386,0.128,0.53s0.195,0.262,0.33,0.351c0.135,0.09,0.292,0.154,0.473,0.194c0.18,0.04,0.369,0.06,0.569,0.06
		c0.42,0,0.78-0.058,1.08-0.172s0.545-0.259,0.735-0.433c0.189-0.174,0.33-0.363,0.42-0.567s0.135-0.396,0.135-0.574V72.847z"/>
	<path d="M48.615,76.821c-0.22,0.13-0.525,0.195-0.915,0.195c-0.33,0-0.593-0.093-0.787-0.277c-0.195-0.186-0.293-0.487-0.293-0.907
		c-0.351,0.42-0.758,0.722-1.223,0.907c-0.465,0.185-0.968,0.277-1.507,0.277c-0.351,0-0.683-0.04-0.998-0.12
		c-0.314-0.08-0.588-0.205-0.817-0.375c-0.23-0.17-0.412-0.393-0.548-0.667c-0.135-0.275-0.202-0.608-0.202-0.998
		c0-0.439,0.075-0.8,0.225-1.08c0.15-0.279,0.348-0.507,0.593-0.683c0.245-0.175,0.525-0.308,0.84-0.397
		c0.315-0.09,0.638-0.165,0.968-0.225c0.35-0.07,0.683-0.122,0.997-0.157c0.315-0.035,0.593-0.085,0.833-0.15
		c0.24-0.064,0.43-0.16,0.57-0.285c0.14-0.125,0.21-0.308,0.21-0.547c0-0.28-0.053-0.505-0.158-0.676
		c-0.104-0.17-0.239-0.3-0.404-0.39s-0.351-0.15-0.556-0.18c-0.205-0.03-0.407-0.045-0.607-0.045c-0.54,0-0.99,0.103-1.35,0.307
		c-0.36,0.205-0.556,0.593-0.585,1.163h-1.275c0.021-0.48,0.12-0.885,0.3-1.215c0.181-0.33,0.42-0.598,0.721-0.803
		c0.3-0.205,0.642-0.353,1.027-0.442c0.385-0.09,0.797-0.135,1.237-0.135c0.35,0,0.697,0.024,1.043,0.074
		c0.345,0.05,0.657,0.152,0.938,0.308c0.279,0.154,0.504,0.371,0.675,0.65c0.17,0.279,0.255,0.644,0.255,1.093v3.981
		c0,0.3,0.018,0.519,0.053,0.658c0.034,0.14,0.152,0.21,0.353,0.21c0.109,0,0.239-0.02,0.39-0.06V76.821z M46.544,72.847
		c-0.16,0.119-0.37,0.206-0.63,0.261c-0.26,0.056-0.532,0.1-0.817,0.135s-0.572,0.075-0.862,0.119
		c-0.29,0.045-0.55,0.117-0.78,0.217s-0.418,0.241-0.562,0.426c-0.145,0.184-0.218,0.435-0.218,0.753
		c0,0.209,0.043,0.386,0.128,0.53s0.195,0.262,0.33,0.351c0.135,0.09,0.292,0.154,0.473,0.194c0.18,0.04,0.369,0.06,0.569,0.06
		c0.42,0,0.78-0.058,1.08-0.172s0.545-0.259,0.735-0.433c0.189-0.174,0.33-0.363,0.42-0.567s0.135-0.396,0.135-0.574V72.847z"/>
	<path d="M55.679,66.142l5.64,8.685h0.03v-8.685H62.7v10.71h-1.561l-5.595-8.595h-0.03v8.595h-1.35v-10.71H55.679z"/>
	<path d="M71.669,76.821c-0.22,0.13-0.525,0.195-0.915,0.195c-0.33,0-0.593-0.093-0.787-0.277c-0.195-0.186-0.293-0.487-0.293-0.907
		c-0.351,0.42-0.758,0.722-1.223,0.907c-0.465,0.185-0.968,0.277-1.507,0.277c-0.351,0-0.683-0.04-0.998-0.12
		c-0.314-0.08-0.588-0.205-0.817-0.375c-0.23-0.17-0.412-0.393-0.548-0.667c-0.135-0.275-0.202-0.608-0.202-0.998
		c0-0.439,0.075-0.8,0.225-1.08c0.15-0.279,0.348-0.507,0.593-0.683c0.245-0.175,0.525-0.308,0.84-0.397
		c0.315-0.09,0.638-0.165,0.968-0.225c0.35-0.07,0.683-0.122,0.997-0.157c0.315-0.035,0.593-0.085,0.833-0.15
		c0.24-0.064,0.43-0.16,0.57-0.285c0.14-0.125,0.21-0.308,0.21-0.547c0-0.28-0.053-0.505-0.158-0.676
		c-0.104-0.17-0.239-0.3-0.404-0.39s-0.351-0.15-0.556-0.18c-0.205-0.03-0.407-0.045-0.607-0.045c-0.54,0-0.99,0.103-1.35,0.307
		c-0.36,0.205-0.556,0.593-0.585,1.163h-1.275c0.021-0.48,0.12-0.885,0.3-1.215c0.181-0.33,0.42-0.598,0.721-0.803
		c0.3-0.205,0.642-0.353,1.027-0.442c0.385-0.09,0.797-0.135,1.237-0.135c0.35,0,0.697,0.024,1.043,0.074
		c0.345,0.05,0.657,0.152,0.938,0.308c0.279,0.154,0.504,0.371,0.675,0.65c0.17,0.279,0.255,0.644,0.255,1.093v3.981
		c0,0.3,0.018,0.519,0.053,0.658c0.034,0.14,0.152,0.21,0.353,0.21c0.109,0,0.239-0.02,0.39-0.06V76.821z M69.599,72.847
		c-0.16,0.119-0.37,0.206-0.63,0.261c-0.26,0.056-0.532,0.1-0.817,0.135s-0.572,0.075-0.862,0.119
		c-0.29,0.045-0.55,0.117-0.78,0.217s-0.418,0.241-0.562,0.426c-0.145,0.184-0.218,0.435-0.218,0.753
		c0,0.209,0.043,0.386,0.128,0.53s0.195,0.262,0.33,0.351c0.135,0.09,0.292,0.154,0.473,0.194c0.18,0.04,0.369,0.06,0.569,0.06
		c0.42,0,0.78-0.058,1.08-0.172s0.545-0.259,0.735-0.433c0.189-0.174,0.33-0.363,0.42-0.567s0.135-0.396,0.135-0.574V72.847z"/>
	<path d="M79.724,76.821c-0.22,0.13-0.525,0.195-0.915,0.195c-0.33,0-0.593-0.093-0.787-0.277c-0.195-0.186-0.293-0.487-0.293-0.907
		c-0.351,0.42-0.758,0.722-1.223,0.907c-0.465,0.185-0.968,0.277-1.507,0.277c-0.351,0-0.683-0.04-0.998-0.12
		c-0.314-0.08-0.588-0.205-0.817-0.375c-0.23-0.17-0.412-0.393-0.548-0.667c-0.135-0.275-0.202-0.608-0.202-0.998
		c0-0.439,0.075-0.8,0.225-1.08c0.15-0.279,0.348-0.507,0.593-0.683c0.245-0.175,0.525-0.308,0.84-0.397
		c0.315-0.09,0.638-0.165,0.968-0.225c0.35-0.07,0.683-0.122,0.997-0.157c0.315-0.035,0.593-0.085,0.833-0.15
		c0.24-0.064,0.43-0.16,0.57-0.285c0.14-0.125,0.21-0.308,0.21-0.547c0-0.28-0.053-0.505-0.158-0.676
		c-0.104-0.17-0.239-0.3-0.404-0.39s-0.351-0.15-0.556-0.18c-0.205-0.03-0.407-0.045-0.607-0.045c-0.54,0-0.99,0.103-1.35,0.307
		c-0.36,0.205-0.556,0.593-0.585,1.163h-1.275c0.021-0.48,0.12-0.885,0.3-1.215c0.181-0.33,0.42-0.598,0.721-0.803
		c0.3-0.205,0.642-0.353,1.027-0.442c0.385-0.09,0.797-0.135,1.237-0.135c0.35,0,0.697,0.024,1.043,0.074
		c0.345,0.05,0.657,0.152,0.938,0.308c0.279,0.154,0.504,0.371,0.675,0.65c0.17,0.279,0.255,0.644,0.255,1.093v3.981
		c0,0.3,0.018,0.519,0.053,0.658c0.034,0.14,0.152,0.21,0.353,0.21c0.109,0,0.239-0.02,0.39-0.06V76.821z M77.654,72.847
		c-0.16,0.119-0.37,0.206-0.63,0.261c-0.26,0.056-0.532,0.1-0.817,0.135s-0.572,0.075-0.862,0.119
		c-0.29,0.045-0.55,0.117-0.78,0.217s-0.418,0.241-0.562,0.426c-0.145,0.184-0.218,0.435-0.218,0.753
		c0,0.209,0.043,0.386,0.128,0.53s0.195,0.262,0.33,0.351c0.135,0.09,0.292,0.154,0.473,0.194c0.18,0.04,0.369,0.06,0.569,0.06
		c0.42,0,0.78-0.058,1.08-0.172s0.545-0.259,0.735-0.433c0.189-0.174,0.33-0.363,0.42-0.567s0.135-0.396,0.135-0.574V72.847z"/>
	<path d="M86.789,66.142l5.64,8.685h0.03v-8.685h1.351v10.71h-1.561l-5.595-8.595h-0.03v8.595h-1.35v-10.71H86.789z"/>
	<path d="M102.779,76.821c-0.22,0.13-0.525,0.195-0.915,0.195c-0.33,0-0.593-0.093-0.787-0.277
		c-0.195-0.186-0.293-0.487-0.293-0.907c-0.351,0.42-0.758,0.722-1.223,0.907c-0.465,0.185-0.968,0.277-1.507,0.277
		c-0.351,0-0.683-0.04-0.998-0.12c-0.314-0.08-0.588-0.205-0.817-0.375c-0.23-0.17-0.412-0.393-0.548-0.667
		c-0.135-0.275-0.202-0.608-0.202-0.998c0-0.439,0.075-0.8,0.225-1.08c0.15-0.279,0.348-0.507,0.593-0.683
		c0.245-0.175,0.525-0.308,0.84-0.397c0.315-0.09,0.638-0.165,0.968-0.225c0.35-0.07,0.683-0.122,0.997-0.157
		c0.315-0.035,0.593-0.085,0.833-0.15c0.24-0.064,0.43-0.16,0.57-0.285c0.14-0.125,0.21-0.308,0.21-0.547
		c0-0.28-0.053-0.505-0.158-0.676c-0.104-0.17-0.239-0.3-0.404-0.39s-0.351-0.15-0.556-0.18c-0.205-0.03-0.407-0.045-0.607-0.045
		c-0.54,0-0.99,0.103-1.35,0.307c-0.36,0.205-0.556,0.593-0.585,1.163h-1.275c0.021-0.48,0.12-0.885,0.3-1.215
		c0.181-0.33,0.42-0.598,0.721-0.803c0.3-0.205,0.642-0.353,1.027-0.442c0.385-0.09,0.797-0.135,1.237-0.135
		c0.35,0,0.697,0.024,1.043,0.074c0.345,0.05,0.657,0.152,0.938,0.308c0.279,0.154,0.504,0.371,0.675,0.65
		c0.17,0.279,0.255,0.644,0.255,1.093v3.981c0,0.3,0.018,0.519,0.053,0.658c0.034,0.14,0.152,0.21,0.353,0.21
		c0.109,0,0.239-0.02,0.39-0.06V76.821z M100.708,72.847c-0.16,0.119-0.37,0.206-0.63,0.261c-0.26,0.056-0.532,0.1-0.817,0.135
		s-0.572,0.075-0.862,0.119c-0.29,0.045-0.55,0.117-0.78,0.217s-0.418,0.241-0.562,0.426c-0.145,0.184-0.218,0.435-0.218,0.753
		c0,0.209,0.043,0.386,0.128,0.53s0.195,0.262,0.33,0.351c0.135,0.09,0.292,0.154,0.473,0.194c0.18,0.04,0.369,0.06,0.569,0.06
		c0.42,0,0.78-0.058,1.08-0.172s0.545-0.259,0.735-0.433c0.189-0.174,0.33-0.363,0.42-0.567s0.135-0.396,0.135-0.574V72.847z"/>
	<path d="M110.833,76.821c-0.22,0.13-0.525,0.195-0.915,0.195c-0.33,0-0.593-0.093-0.787-0.277
		c-0.195-0.186-0.293-0.487-0.293-0.907c-0.351,0.42-0.758,0.722-1.223,0.907c-0.465,0.185-0.968,0.277-1.507,0.277
		c-0.351,0-0.683-0.04-0.998-0.12c-0.314-0.08-0.588-0.205-0.817-0.375c-0.23-0.17-0.412-0.393-0.548-0.667
		c-0.135-0.275-0.202-0.608-0.202-0.998c0-0.439,0.075-0.8,0.225-1.08c0.15-0.279,0.348-0.507,0.593-0.683
		c0.245-0.175,0.525-0.308,0.84-0.397c0.315-0.09,0.638-0.165,0.968-0.225c0.35-0.07,0.683-0.122,0.997-0.157
		c0.315-0.035,0.593-0.085,0.833-0.15c0.24-0.064,0.43-0.16,0.57-0.285c0.14-0.125,0.21-0.308,0.21-0.547
		c0-0.28-0.053-0.505-0.158-0.676c-0.104-0.17-0.239-0.3-0.404-0.39s-0.351-0.15-0.556-0.18c-0.205-0.03-0.407-0.045-0.607-0.045
		c-0.54,0-0.99,0.103-1.35,0.307c-0.36,0.205-0.556,0.593-0.585,1.163h-1.275c0.021-0.48,0.12-0.885,0.3-1.215
		c0.181-0.33,0.42-0.598,0.721-0.803c0.3-0.205,0.642-0.353,1.027-0.442c0.385-0.09,0.797-0.135,1.237-0.135
		c0.35,0,0.697,0.024,1.043,0.074c0.345,0.05,0.657,0.152,0.938,0.308c0.279,0.154,0.504,0.371,0.675,0.65
		c0.17,0.279,0.255,0.644,0.255,1.093v3.981c0,0.3,0.018,0.519,0.053,0.658c0.034,0.14,0.152,0.21,0.353,0.21
		c0.109,0,0.239-0.02,0.39-0.06V76.821z M108.763,72.847c-0.16,0.119-0.37,0.206-0.63,0.261c-0.26,0.056-0.532,0.1-0.817,0.135
		s-0.572,0.075-0.862,0.119c-0.29,0.045-0.55,0.117-0.78,0.217s-0.418,0.241-0.562,0.426c-0.145,0.184-0.218,0.435-0.218,0.753
		c0,0.209,0.043,0.386,0.128,0.53s0.195,0.262,0.33,0.351c0.135,0.09,0.292,0.154,0.473,0.194c0.18,0.04,0.369,0.06,0.569,0.06
		c0.42,0,0.78-0.058,1.08-0.172s0.545-0.259,0.735-0.433c0.189-0.174,0.33-0.363,0.42-0.567s0.135-0.396,0.135-0.574V72.847z"/>
	<path d="M117.898,66.142l5.64,8.685h0.03v-8.685h1.351v10.71h-1.561l-5.595-8.595h-0.03v8.595h-1.35v-10.71H117.898z"/>
	<path d="M133.888,76.821c-0.22,0.13-0.525,0.195-0.915,0.195c-0.33,0-0.593-0.093-0.787-0.277
		c-0.195-0.186-0.293-0.487-0.293-0.907c-0.351,0.42-0.758,0.722-1.223,0.907c-0.465,0.185-0.968,0.277-1.507,0.277
		c-0.351,0-0.683-0.04-0.998-0.12c-0.314-0.08-0.588-0.205-0.817-0.375c-0.23-0.17-0.412-0.393-0.548-0.667
		c-0.135-0.275-0.202-0.608-0.202-0.998c0-0.439,0.075-0.8,0.225-1.08c0.15-0.279,0.348-0.507,0.593-0.683
		c0.245-0.175,0.525-0.308,0.84-0.397c0.315-0.09,0.638-0.165,0.968-0.225c0.35-0.07,0.683-0.122,0.997-0.157
		c0.315-0.035,0.593-0.085,0.833-0.15c0.24-0.064,0.43-0.16,0.57-0.285c0.14-0.125,0.21-0.308,0.21-0.547
		c0-0.28-0.053-0.505-0.158-0.676c-0.104-0.17-0.239-0.3-0.404-0.39s-0.351-0.15-0.556-0.18c-0.205-0.03-0.407-0.045-0.607-0.045
		c-0.54,0-0.99,0.103-1.35,0.307c-0.36,0.205-0.556,0.593-0.585,1.163h-1.275c0.021-0.48,0.12-0.885,0.3-1.215
		c0.181-0.33,0.42-0.598,0.721-0.803c0.3-0.205,0.642-0.353,1.027-0.442c0.385-0.09,0.797-0.135,1.237-0.135
		c0.35,0,0.697,0.024,1.043,0.074c0.345,0.05,0.657,0.152,0.938,0.308c0.279,0.154,0.504,0.371,0.675,0.65
		c0.17,0.279,0.255,0.644,0.255,1.093v3.981c0,0.3,0.018,0.519,0.053,0.658c0.034,0.14,0.152,0.21,0.353,0.21
		c0.109,0,0.239-0.02,0.39-0.06V76.821z M131.818,72.847c-0.16,0.119-0.37,0.206-0.63,0.261c-0.26,0.056-0.532,0.1-0.817,0.135
		s-0.572,0.075-0.862,0.119c-0.29,0.045-0.55,0.117-0.78,0.217s-0.418,0.241-0.562,0.426c-0.145,0.184-0.218,0.435-0.218,0.753
		c0,0.209,0.043,0.386,0.128,0.53s0.195,0.262,0.33,0.351c0.135,0.09,0.292,0.154,0.473,0.194c0.18,0.04,0.369,0.06,0.569,0.06
		c0.42,0,0.78-0.058,1.08-0.172s0.545-0.259,0.735-0.433c0.189-0.174,0.33-0.363,0.42-0.567s0.135-0.396,0.135-0.574V72.847z"/>
</g>
</svg>
